# Created by FreeCAD <http://www.freecadweb.org>
v -4.000000 2.500000 10.000000
v -4.598289 2.427355 10.000000
v -4.000000 2.500000 12.000000
v -4.598289 2.427355 12.000000
v -5.161808 2.213640 10.000000
v -5.161808 2.213640 12.000000
v -5.657807 1.871277 10.000000
v -5.657807 1.871277 12.000000
v -6.057460 1.420162 10.000000
v -6.057460 1.420162 12.000000
v -6.337541 0.886512 10.000000
v -6.337541 0.886512 12.000000
v -6.481772 0.301342 10.000000
v -6.481772 0.301342 12.000000
v -6.481772 -0.301342 10.000000
v -6.481772 -0.301342 12.000000
v -6.337541 -0.886512 12.000000
v -6.337541 -0.886512 10.000000
v -6.057460 -1.420162 12.000000
v -6.057460 -1.420162 10.000000
v -5.657807 -1.871277 10.000000
v -5.657807 -1.871277 12.000000
v -5.161808 -2.213640 10.000000
v -5.161808 -2.213640 12.000000
v -4.598289 -2.427355 10.000000
v -4.598289 -2.427355 12.000000
v -4.000000 -2.500000 10.000000
v -4.000000 -2.500000 12.000000
v -2.500000 2.500000 10.000000
v 4.000000 2.500000 12.000000
v 2.500000 2.500000 10.000000
v 4.000000 2.500000 10.000000
v -2.500000 -2.500000 10.000000
v 4.000000 -2.500000 12.000000
v 2.500000 -2.500000 10.000000
v 4.000000 -2.500000 10.000000
v -4.000000 2.500000 17.000000
v -4.598289 2.427355 17.000000
v -5.161808 2.213640 17.000000
v -5.657806 1.871277 17.000000
v -6.057460 1.420162 17.000000
v -6.337541 0.886512 17.000000
v -6.481772 0.301342 17.000000
v -6.481772 -0.301342 17.000000
v -6.337541 -0.886512 17.000000
v -6.057460 -1.420162 17.000000
v -5.657807 -1.871277 17.000000
v -5.161808 -2.213640 17.000000
v -4.598289 -2.427355 17.000000
v -4.000000 -2.500000 17.000000
v 4.598289 -2.427355 10.000000
v 4.598289 -2.427355 12.000000
v 5.161808 -2.213640 10.000000
v 5.161808 -2.213640 12.000000
v 5.657807 -1.871277 10.000000
v 5.657807 -1.871277 12.000000
v 6.057460 -1.420162 10.000000
v 6.057460 -1.420162 12.000000
v 6.337541 -0.886512 10.000000
v 6.337541 -0.886512 12.000000
v 6.481772 -0.301342 10.000000
v 6.481772 -0.301342 12.000000
v 6.481772 0.301342 10.000000
v 6.481772 0.301342 12.000000
v 6.337541 0.886512 10.000000
v 6.337541 0.886512 12.000000
v 6.057460 1.420162 10.000000
v 6.057460 1.420162 12.000000
v 5.657807 1.871277 10.000000
v 5.657807 1.871277 12.000000
v 5.161808 2.213640 10.000000
v 5.161808 2.213640 12.000000
v 4.598289 2.427355 10.000000
v 4.598289 2.427355 12.000000
v 2.500000 2.500000 0.000000
v -2.500000 2.500000 0.000000
v -2.500000 -2.500000 0.000000
v 2.500000 -2.500000 0.000000
v 4.000000 -2.500000 17.000000
v 4.598289 -2.427355 17.000000
v 5.161808 -2.213640 17.000000
v 5.657807 -1.871277 17.000000
v 6.057460 -1.420162 17.000000
v 6.337541 -0.886512 17.000000
v 6.481772 -0.301342 17.000000
v 6.481772 0.301342 17.000000
v 6.337541 0.886512 17.000000
v 6.057460 1.420162 17.000000
v 5.657807 1.871277 17.000000
v 5.161808 2.213640 17.000000
v 4.598289 2.427355 17.000000
v 4.000000 2.500000 17.000000
vn -0.120537 0.992709 0.000000
vn -0.120537 0.992709 0.000000
vn -0.354605 0.935016 0.000000
vn -0.354605 0.935016 0.000000
vn -0.568065 0.822984 0.000000
vn -0.568065 0.822984 0.000000
vn -0.748511 0.663123 0.000000
vn -0.748511 0.663123 0.000000
vn -0.885456 0.464723 0.000000
vn -0.885456 0.464723 0.000000
vn -0.970942 0.239316 0.000000
vn -0.970942 0.239316 0.000000
vn -1.000000 -0.000000 0.000000
vn -0.970942 -0.239316 -0.000000
vn -1.000000 0.000000 0.000000
vn -0.885456 -0.464723 -0.000000
vn -0.970942 -0.239316 0.000000
vn -0.885456 -0.464723 0.000000
vn -0.748511 -0.663123 0.000000
vn -0.748511 -0.663123 0.000000
vn -0.568065 -0.822984 0.000000
vn -0.568065 -0.822984 0.000000
vn -0.354605 -0.935016 0.000000
vn -0.354605 -0.935016 0.000000
vn -0.120537 -0.992709 0.000000
vn -0.120537 -0.992709 0.000000
vn 0.000000 1.000000 0.000000
vn 0.000000 1.000000 0.000000
vn 0.000000 1.000000 -0.000000
vn 0.000000 1.000000 -0.000000
vn 0.000000 -1.000000 0.000000
vn 0.000000 -1.000000 0.000000
vn 0.000000 -1.000000 0.000000
vn 0.000000 -1.000000 0.000000
vn 0.000000 0.000000 -1.000000
vn 0.000000 0.000000 -1.000000
vn 0.000000 0.000000 -1.000000
vn 0.000000 -0.000000 -1.000000
vn 0.000000 0.000000 -1.000000
vn 0.000000 -0.000000 -1.000000
vn 0.000000 0.000000 -1.000000
vn 0.000000 -0.000000 -1.000000
vn 0.000000 -0.000000 -1.000000
vn 0.000000 0.000000 -1.000000
vn 0.000000 0.000000 -1.000000
vn 0.000000 -0.000000 -1.000000
vn 0.000000 0.000000 -1.000000
vn 0.000000 0.000000 -1.000000
vn -0.120537 0.992709 0.000000
vn -0.120537 0.992709 0.000000
vn -0.354605 0.935016 0.000000
vn -0.354605 0.935016 0.000000
vn -0.568065 0.822984 0.000000
vn -0.748510 0.663123 0.000000
vn -0.568065 0.822984 0.000000
vn -0.885456 0.464723 0.000000
vn -0.748511 0.663123 0.000000
vn -0.885456 0.464723 0.000000
vn -0.970942 0.239315 0.000000
vn -1.000000 0.000001 0.000000
vn -0.970942 0.239316 0.000000
vn -1.000000 0.000000 0.000000
vn -0.970942 -0.239316 0.000000
vn -0.885456 -0.464723 -0.000000
vn -0.970942 -0.239316 0.000000
vn -0.748511 -0.663123 -0.000000
vn -0.885456 -0.464723 0.000000
vn -0.568065 -0.822984 -0.000000
vn -0.748511 -0.663123 0.000000
vn -0.568065 -0.822984 0.000000
vn -0.354605 -0.935016 0.000000
vn -0.354605 -0.935016 0.000000
vn -0.120537 -0.992709 0.000000
vn -0.120537 -0.992709 0.000000
vn 0.120537 -0.992709 0.000000
vn 0.120537 -0.992709 0.000000
vn 0.354605 -0.935016 0.000000
vn 0.354605 -0.935016 0.000000
vn 0.568065 -0.822984 0.000000
vn 0.568065 -0.822984 0.000000
vn 0.748511 -0.663123 0.000000
vn 0.748511 -0.663123 0.000000
vn 0.885456 -0.464723 0.000000
vn 0.885456 -0.464723 0.000000
vn 0.970942 -0.239316 0.000000
vn 0.970942 -0.239316 0.000000
vn 1.000000 -0.000000 0.000000
vn 1.000000 0.000000 0.000000
vn 0.970942 0.239316 0.000000
vn 0.970942 0.239316 -0.000000
vn 0.885456 0.464723 0.000000
vn 0.885456 0.464723 -0.000000
vn 0.748511 0.663123 0.000000
vn 0.748511 0.663123 -0.000000
vn 0.568065 0.822984 0.000000
vn 0.568065 0.822984 -0.000000
vn 0.354605 0.935016 0.000000
vn 0.354605 0.935016 -0.000000
vn 0.120537 0.992709 0.000000
vn 0.120537 0.992709 -0.000000
vn 0.000000 1.000000 0.000000
vn 0.000000 1.000000 -0.000000
vn 0.000000 0.000000 -1.000000
vn 0.000000 0.000000 -1.000000
vn 0.000000 0.000000 -1.000000
vn 0.000000 0.000000 -1.000000
vn 0.000000 0.000000 -1.000000
vn 0.000000 0.000000 -1.000000
vn 0.000000 0.000000 -1.000000
vn 0.000000 0.000000 -1.000000
vn 0.000000 0.000000 -1.000000
vn -0.000000 -0.000000 -1.000000
vn 0.000000 0.000000 -1.000000
vn 0.000000 0.000000 -1.000000
vn 0.000000 0.000000 -1.000000
vn 0.000000 0.000000 -1.000000
vn 0.000000 0.000000 1.000000
vn 0.000000 0.000000 1.000000
vn 0.000000 -1.000000 0.000000
vn 0.000000 -1.000000 0.000000
vn -1.000000 0.000000 0.000000
vn -1.000000 0.000000 0.000000
vn 1.000000 0.000000 0.000000
vn 1.000000 0.000000 0.000000
vn 0.000000 0.000000 1.000000
vn 0.000000 0.000000 1.000000
vn 0.000000 0.000000 1.000000
vn 0.000000 0.000000 1.000000
vn 0.000000 0.000000 1.000000
vn -0.000000 0.000000 1.000000
vn -0.000000 0.000000 1.000000
vn 0.000000 0.000000 1.000000
vn 0.000000 0.000000 1.000000
vn 0.000000 0.000000 1.000000
vn 0.000000 0.000000 1.000000
vn 0.000000 -0.000000 1.000000
vn 0.120537 -0.992709 0.000000
vn 0.120537 -0.992709 0.000000
vn 0.354605 -0.935016 0.000000
vn 0.354605 -0.935016 0.000000
vn 0.568065 -0.822984 0.000000
vn 0.568065 -0.822984 0.000000
vn 0.748511 -0.663123 0.000000
vn 0.748511 -0.663123 0.000000
vn 0.885456 -0.464723 0.000000
vn 0.970942 -0.239316 0.000000
vn 0.885456 -0.464723 0.000000
vn 0.970942 -0.239316 0.000000
vn 1.000000 -0.000000 0.000000
vn 1.000000 0.000000 0.000000
vn 0.970942 0.239316 0.000000
vn 0.970942 0.239316 -0.000000
vn 0.885456 0.464723 0.000000
vn 0.885456 0.464723 -0.000000
vn 0.748511 0.663123 0.000000
vn 0.568065 0.822984 0.000000
vn 0.748511 0.663123 -0.000000
vn 0.568065 0.822984 0.000000
vn 0.354605 0.935016 0.000000
vn 0.354605 0.935016 -0.000000
vn 0.120537 0.992709 0.000000
vn 0.120537 0.992709 -0.000000
vn 1.000000 0.000000 0.000000
vn 1.000000 0.000000 0.000000
vn 0.000000 0.000000 -1.000000
vn 0.000000 0.000000 -1.000000
vn -1.000000 -0.000000 -0.000000
vn -1.000000 0.000000 0.000000
vn 0.000000 0.000000 1.000000
vn 0.000000 0.000000 1.000000
vn 0.000000 0.000000 1.000000
vn 0.000000 0.000000 1.000000
vn 0.000000 0.000000 1.000000
vn 0.000000 0.000000 1.000000
vn 0.000000 0.000000 1.000000
vn 0.000000 0.000000 1.000000
vn 0.000000 0.000000 1.000000
vn 0.000000 0.000000 1.000000
vn 0.000000 0.000000 1.000000
vn 0.000000 0.000000 1.000000
f 1//1 2//1 3//1
f 3//2 2//2 4//2
f 4//3 5//3 6//3
f 2//4 5//4 4//4
f 6//5 7//5 8//5
f 5//6 7//6 6//6
f 8//7 9//7 10//7
f 7//8 9//8 8//8
f 10//9 11//9 12//9
f 9//10 11//10 10//10
f 12//11 13//11 14//11
f 11//12 13//12 12//12
f 14//13 15//13 16//13
f 16//14 15//14 17//14
f 13//15 15//15 14//15
f 17//16 18//16 19//16
f 15//17 18//17 17//17
f 18//18 20//18 19//18
f 19//19 21//19 22//19
f 20//20 21//20 19//20
f 22//21 23//21 24//21
f 21//22 23//22 22//22
f 24//23 25//23 26//23
f 23//24 25//24 24//24
f 26//25 27//25 28//25
f 25//26 27//26 26//26
f 29//27 1//27 3//27
f 30//28 29//28 3//28
f 31//29 29//29 30//29
f 32//30 31//30 30//30
f 27//31 33//31 28//31
f 33//32 34//32 28//32
f 33//33 35//33 34//33
f 35//34 36//34 34//34
f 20//35 18//35 21//35
f 21//36 15//36 23//36
f 18//37 15//37 21//37
f 11//38 9//38 13//38
f 13//39 9//39 15//39
f 7//40 5//40 9//40
f 15//41 2//41 23//41
f 9//42 2//42 15//42
f 5//43 2//43 9//43
f 23//44 1//44 25//44
f 25//45 1//45 27//45
f 2//46 1//46 23//46
f 27//47 29//47 33//47
f 1//48 29//48 27//48
f 3//49 4//49 37//49
f 37//50 4//50 38//50
f 38//51 6//51 39//51
f 4//52 6//52 38//52
f 39//53 8//53 40//53
f 40//54 8//54 41//54
f 6//55 8//55 39//55
f 41//56 10//56 42//56
f 8//57 10//57 41//57
f 10//58 12//58 42//58
f 42//59 14//59 43//59
f 43//60 14//60 44//60
f 12//61 14//61 42//61
f 14//62 16//62 44//62
f 44//63 17//63 45//63
f 45//64 17//64 46//64
f 16//65 17//65 44//65
f 46//66 19//66 47//66
f 17//67 19//67 46//67
f 47//68 22//68 48//68
f 19//69 22//69 47//69
f 22//70 24//70 48//70
f 48//71 26//71 49//71
f 24//72 26//72 48//72
f 49//73 28//73 50//73
f 26//74 28//74 49//74
f 36//75 51//75 34//75
f 34//76 51//76 52//76
f 52//77 53//77 54//77
f 51//78 53//78 52//78
f 54//79 55//79 56//79
f 53//80 55//80 54//80
f 56//81 57//81 58//81
f 55//82 57//82 56//82
f 58//83 59//83 60//83
f 57//84 59//84 58//84
f 60//85 61//85 62//85
f 59//86 61//86 60//86
f 62//87 63//87 64//87
f 61//88 63//88 62//88
f 64//89 65//89 66//89
f 63//90 65//90 64//90
f 66//91 67//91 68//91
f 65//92 67//92 66//92
f 68//93 69//93 70//93
f 67//94 69//94 68//94
f 70//95 71//95 72//95
f 69//96 71//96 70//96
f 72//97 73//97 74//97
f 71//98 73//98 72//98
f 74//99 32//99 30//99
f 73//100 32//100 74//100
f 75//101 76//101 29//101
f 75//102 29//102 31//102
f 51//103 55//103 53//103
f 51//104 57//104 55//104
f 57//105 61//105 59//105
f 31//106 32//106 35//106
f 35//107 32//107 36//107
f 36//108 73//108 51//108
f 32//109 73//109 36//109
f 61//110 65//110 63//110
f 65//111 69//111 67//111
f 71//112 69//112 73//112
f 51//113 69//113 57//113
f 57//114 69//114 61//114
f 73//115 69//115 51//115
f 61//116 69//116 65//116
f 30//117 3//117 28//117
f 30//118 28//118 34//118
f 77//119 78//119 35//119
f 77//120 35//120 33//120
f 76//121 77//121 33//121
f 76//122 33//122 29//122
f 28//123 3//123 37//123
f 28//124 37//124 50//124
f 50//125 48//125 49//125
f 47//126 45//126 46//126
f 48//127 45//127 47//127
f 45//128 43//128 44//128
f 37//129 40//129 50//129
f 38//130 40//130 37//130
f 39//131 40//131 38//131
f 42//132 40//132 41//132
f 43//133 40//133 42//133
f 50//134 40//134 48//134
f 48//135 40//135 45//135
f 45//136 40//136 43//136
f 34//137 52//137 79//137
f 79//138 52//138 80//138
f 80//139 54//139 81//139
f 52//140 54//140 80//140
f 81//141 56//141 82//141
f 54//142 56//142 81//142
f 82//143 58//143 83//143
f 56//144 58//144 82//144
f 83//145 60//145 84//145
f 84//146 60//146 85//146
f 58//147 60//147 83//147
f 60//148 62//148 85//148
f 85//149 64//149 86//149
f 62//150 64//150 85//150
f 86//151 66//151 87//151
f 64//152 66//152 86//152
f 87//153 68//153 88//153
f 66//154 68//154 87//154
f 88//155 70//155 89//155
f 89//156 70//156 90//156
f 68//157 70//157 88//157
f 70//158 72//158 90//158
f 90//159 74//159 91//159
f 72//160 74//160 90//160
f 91//161 30//161 92//161
f 74//162 30//162 91//162
f 78//163 75//163 31//163
f 78//164 31//164 35//164
f 76//165 75//165 78//165
f 76//166 78//166 77//166
f 92//167 30//167 79//167
f 30//168 34//168 79//168
f 83//169 80//169 81//169
f 83//170 81//170 82//170
f 85//171 83//171 84//171
f 92//172 79//172 80//172
f 87//173 85//173 86//173
f 87//174 83//174 85//174
f 89//175 87//175 88//175
f 89//176 90//176 91//176
f 89//177 91//177 92//177
f 89//178 92//178 80//178
f 89//179 80//179 83//179
f 89//180 83//180 87//180
